<?xml version="1.0" encoding="iso-8859-1"?>
<!-- Uploaded to: SVG Repo, www.svgrepo.com, Generator: SVG Repo Mixer Tools -->
<!DOCTYPE svg PUBLIC "-//W3C//DTD SVG 1.1//EN" "http://www.w3.org/Graphics/SVG/1.1/DTD/svg11.dtd">
<svg fill="#000000" version="1.1" id="Capa_1" xmlns="http://www.w3.org/2000/svg" xmlns:xlink="http://www.w3.org/1999/xlink" 
	 width="200px" height="200px" viewBox="0 0 30.998 30.998"
	 xml:space="preserve">
<g>
	<g>
		
		<path d="M30.641,8.804L29.35,8.651c-0.132-0.492-0.324-0.959-0.574-1.39l0.803-1.02c0.123-0.155,0.107-0.399-0.033-0.54
			l-1.33-1.329c-0.14-0.142-0.383-0.156-0.54-0.033l-1.021,0.803c-0.43-0.249-0.896-0.441-1.385-0.571l-0.156-1.29
			c-0.022-0.198-0.205-0.359-0.402-0.359H22.83c-0.199,0-0.381,0.161-0.404,0.359l-0.154,1.29c-0.492,0.13-0.957,0.323-1.388,0.572
			l-1.021-0.802c-0.156-0.122-0.399-0.107-0.539,0.031l-1.331,1.332c-0.142,0.141-0.155,0.383-0.032,0.539l0.803,1.021
			c-0.25,0.43-0.441,0.896-0.574,1.388L16.9,8.806c-0.198,0.023-0.359,0.206-0.359,0.405v1.881c0,0.197,0.162,0.381,0.359,0.402
			l1.289,0.157c0.133,0.49,0.326,0.955,0.574,1.386l-0.803,1.02c-0.122,0.156-0.107,0.4,0.033,0.54l1.328,1.329
			c0.141,0.143,0.383,0.156,0.539,0.033l1.021-0.804c0.43,0.249,0.896,0.442,1.387,0.572l0.155,1.292
			c0.022,0.195,0.206,0.356,0.404,0.356h1.881c0.198,0,0.38-0.161,0.403-0.356l0.154-1.292c0.492-0.13,0.957-0.323,1.387-0.572
			l1.021,0.802c0.157,0.123,0.399,0.109,0.54-0.031l1.33-1.332c0.141-0.139,0.155-0.382,0.032-0.538l-0.802-1.021
			c0.25-0.429,0.44-0.895,0.572-1.386l1.291-0.154c0.198-0.025,0.359-0.205,0.359-0.405V9.21
			C30.999,9.009,30.837,8.829,30.641,8.804z M23.771,13.764c-1.998,0-3.615-1.618-3.615-3.614c0-1.997,1.619-3.614,3.615-3.614
			c1.994,0,3.613,1.617,3.613,3.614C27.384,12.145,25.766,13.764,23.771,13.764z"/>
	</g>
</g>
</svg>